<?xml version="1.0" encoding="UTF-8"?> <!-- Generator: Adobe Illustrator 25.1.0, SVG Export Plug-In . SVG Version: 6.00 Build 0) --> <svg xmlns="http://www.w3.org/2000/svg" xmlns:xlink="http://www.w3.org/1999/xlink" version="1.1" id="ENG" x="0px" y="0px" viewBox="0 0 815 350" style="enable-background:new 0 0 815 350;" xml:space="preserve"> <style type="text/css"> .st0{fill:#00689D;} .st1{fill:#FFFFFF;} </style> <g> <rect x="-0.4" class="st0" width="815.8" height="350"></rect> </g> <g> <g> <rect x="275.9" y="43.4" class="st0" width="263.3" height="263.3"></rect> <path class="st1" d="M538.1,44.4v261.3H276.9V44.4H538.1 M540.1,42.4h-2H276.9h-2v2v261.3v2h2h261.3h2v-2V44.4V42.4L540.1,42.4z"></path> </g> <polygon class="st1" points="297,75.8 297,85.1 297,85.1 303.3,78.6 303.3,78.6 303.3,119 312.2,119 312.2,66.3 305.1,66.3 "></polygon> <path class="st1" d="M343.2,106.3v-7.8c0-8.6-3.4-13-9.8-13c-3.7,0-6,1.7-7.3,4.3H326V78.5c0-3.2,1-5.4,4.2-5.4 c3.2,0,4.1,1.9,4.1,5.1v3.5h8.1v-2.8c0-7.8-2.6-13.2-12.4-13.2c-9.3,0-12.8,6-12.8,14.2v25.6c0,8.2,3.6,14.1,12.9,14.1 C339.5,119.6,343.2,114.4,343.2,106.3 M334.4,107.1c0,3.3-1.2,5.3-4.3,5.3c-3,0-4.1-2-4.1-5.3v-9.6c0.2-3,1.4-4.8,4.2-4.8 c3,0,4.2,1.9,4.2,5.3V107.1z"></path> <g> <path class="st1" d="M453.1,159.8c0,0-2.5,3.3-1.8,6.5c0.7,3.2,4.4,5.1,4.4,5.1s2.5-3.3,1.8-6.5 C456.7,161.7,453.1,159.8,453.1,159.8"></path> <path class="st1" d="M449.1,178.5c0,0,2.5-3.3,1.8-6.5c-0.7-3.2-4.4-5.1-4.4-5.1s-2.5,3.3-1.8,6.5 C445.4,176.6,449.1,178.5,449.1,178.5"></path> <path class="st1" d="M459.2,175c0,0,2.6,2.6,5.6,2.4c3-0.3,5.2-3.3,5.2-3.3s-2.6-2.6-5.6-2.4C461.4,172,459.2,175,459.2,175"></path> <path class="st1" d="M463.5,161c-2.4,2.5-2.1,6.8-2.1,6.8s4.3,0.4,6.7-2.1c2.4-2.5,2.1-6.8,2.1-6.8S465.9,158.5,463.5,161"></path> <path class="st1" d="M458.2,184.8c3,0.4,5.7-2.2,5.7-2.2s-2-3.1-5-3.5c-3-0.3-5.7,2.2-5.7,2.2S455.2,184.4,458.2,184.8"></path> <path class="st1" d="M460.8,232.4h-22.1c-1.7,0-3.1,1.4-3.1,3.1c0,1.7,1.4,3.1,3.1,3.1h22.1c1.7,0,3.1-1.4,3.1-3.1 C463.9,233.8,462.5,232.4,460.8,232.4"></path> <path class="st1" d="M460.8,266.9h-22.1c-1.7,0-3.1,1.4-3.1,3.1c0,1.7,1.4,3.1,3.1,3.1h22.1c1.7,0,3.1-1.4,3.1-3.1 C463.9,268.3,462.5,266.9,460.8,266.9"></path> <path class="st1" d="M361.2,224.8c-0.5-0.2-1-0.3-1.5-0.4C359.7,224.4,360.3,224.6,361.2,224.8"></path> <path class="st1" d="M460,240.8h-20.5c-1,0-1.8,0.8-1.8,1.8v6.2l-13.4,1.5l-19.6-0.4v-11.9c2.6-0.3,5.2-0.9,7.8-1.6 c18.8-5.3,22.9-17,22.5-27.8c-0.4-11,3.1-15.2,8.1-17.1c1.4-0.5,2.9-0.9,4.2-1.1c0.1,2.7,0.6,5.8,1.8,9.6c0.4,0,0.9-0.1,1.3-0.1 c-1.3-3.8-1.8-7-1.8-9.6c2.6-0.3,4.5-0.1,4.5-0.1s-1.8-0.9-4.3-3c0.8-5.2,3.9-8.4,7.1-11.6c1.8-1.8,3.6-3.7,5-5.9l-1.1-0.7 c-1.3,2.1-3.1,3.9-4.8,5.7c-3.1,3.2-6.2,6.4-7.3,11.6c-1-0.9-2.1-2-3.2-3.2c-4.6-5.2-10.6-1.4-19.1,6.6 c-8.5,7.9-19.3,8.2-29.7-2.5c-13.8-14.1-25.9-14.1-34.1-13.3c5.7,2.4,7.6,7.7,10.5,21.1c3,14.1,10.6,20.5,20.9,21.3 c-4.8,0.8-6,1.4-13.8,6.8c-6,4.2-14.5,2.8-17.9,2.1c6.3,2,13.8,8.6,20.5,10.9c3.9,1.3,8,2.2,12.2,2.5v11.4l-37.1-0.8v8l67.5-1.5 l13.4,1.5v6.2c0,1,0.8,1.8,1.8,1.8H460c1,0,1.8-0.8,1.8-1.8v-20.4C461.8,241.6,461,240.8,460,240.8z M397.1,238.3 c1.5,0,2.9,0,4.4-0.1v11.6l-4.4-0.1V238.3z"></path> <path class="st1" d="M354.9,255.5c0,1.7-1.2,3-2.6,3h-1.6c-1.4,0-2.6-1.4-2.6-3V250c0-1.7,1.2-3,2.6-3h1.6c1.4,0,2.6,1.4,2.6,3 V255.5z"></path> </g> <polygon class="st1" points="297,75.8 297,85.1 297,85.1 303.3,78.6 303.3,78.6 303.3,119 312.2,119 312.2,66.3 305.1,66.3 "></polygon> <path class="st1" d="M343.2,106.3v-7.8c0-8.6-3.4-13-9.8-13c-3.7,0-6,1.7-7.3,4.3H326V78.5c0-3.2,1-5.4,4.2-5.4 c3.2,0,4.1,1.9,4.1,5.1v3.5h8.1v-2.8c0-7.8-2.6-13.2-12.4-13.2c-9.3,0-12.8,6-12.8,14.2v25.6c0,8.2,3.6,14.1,12.9,14.1 C339.5,119.6,343.2,114.4,343.2,106.3 M334.4,107.1c0,3.3-1.2,5.3-4.3,5.3c-3,0-4.1-2-4.1-5.3v-9.6c0.2-3,1.4-4.8,4.2-4.8 c3,0,4.2,1.9,4.2,5.3V107.1z"></path> <g> <path class="st1" d="M453.1,159.8c0,0-2.5,3.3-1.8,6.5c0.7,3.2,4.4,5.1,4.4,5.1s2.5-3.3,1.8-6.5 C456.7,161.7,453.1,159.8,453.1,159.8"></path> <path class="st1" d="M449.1,178.5c0,0,2.5-3.3,1.8-6.5c-0.7-3.2-4.4-5.1-4.4-5.1s-2.5,3.3-1.8,6.5 C445.4,176.6,449.1,178.5,449.1,178.5"></path> <path class="st1" d="M459.2,175c0,0,2.6,2.6,5.6,2.4c3-0.3,5.2-3.3,5.2-3.3s-2.6-2.6-5.6-2.4C461.4,172,459.2,175,459.2,175"></path> <path class="st1" d="M463.5,161c-2.4,2.5-2.1,6.8-2.1,6.8s4.3,0.4,6.7-2.1c2.4-2.5,2.1-6.8,2.1-6.8S465.9,158.5,463.5,161"></path> <path class="st1" d="M458.2,184.8c3,0.4,5.7-2.2,5.7-2.2s-2-3.1-5-3.5c-3-0.3-5.7,2.2-5.7,2.2S455.2,184.4,458.2,184.8"></path> <path class="st1" d="M460.8,232.4h-22.1c-1.7,0-3.1,1.4-3.1,3.1c0,1.7,1.4,3.1,3.1,3.1h22.1c1.7,0,3.1-1.4,3.1-3.1 C463.9,233.8,462.5,232.4,460.8,232.4"></path> <path class="st1" d="M460.8,266.9h-22.1c-1.7,0-3.1,1.4-3.1,3.1c0,1.7,1.4,3.1,3.1,3.1h22.1c1.7,0,3.1-1.4,3.1-3.1 C463.9,268.3,462.5,266.9,460.8,266.9"></path> <path class="st1" d="M361.2,224.8c-0.5-0.2-1-0.3-1.5-0.4C359.7,224.4,360.3,224.6,361.2,224.8"></path> <path class="st1" d="M460,240.8h-20.5c-1,0-1.8,0.8-1.8,1.8v6.2l-13.4,1.5l-19.6-0.4v-11.9c2.6-0.3,5.2-0.9,7.8-1.6 c18.8-5.3,22.9-17,22.5-27.8c-0.4-11,3.1-15.2,8.1-17.1c1.4-0.5,2.9-0.9,4.2-1.1c0.1,2.7,0.6,5.8,1.8,9.6c0.4,0,0.9-0.1,1.3-0.1 c-1.3-3.8-1.8-7-1.8-9.6c2.6-0.3,4.5-0.1,4.5-0.1s-1.8-0.9-4.3-3c0.8-5.2,3.9-8.4,7.1-11.6c1.8-1.8,3.6-3.7,5-5.9l-1.1-0.7 c-1.3,2.1-3.1,3.9-4.8,5.7c-3.1,3.2-6.2,6.4-7.3,11.6c-1-0.9-2.1-2-3.2-3.2c-4.6-5.2-10.6-1.4-19.1,6.6 c-8.5,7.9-19.3,8.2-29.7-2.5c-13.8-14.1-25.9-14.1-34.1-13.3c5.7,2.4,7.6,7.7,10.5,21.1c3,14.1,10.6,20.5,20.9,21.3 c-4.8,0.8-6,1.4-13.8,6.8c-6,4.2-14.5,2.8-17.9,2.1c6.3,2,13.8,8.6,20.5,10.9c3.9,1.3,8,2.2,12.2,2.5v11.4l-37.1-0.8v8l67.5-1.5 l13.4,1.5v6.2c0,1,0.8,1.8,1.8,1.8H460c1,0,1.8-0.8,1.8-1.8v-20.4C461.8,241.6,461,240.8,460,240.8z M397.1,238.3 c1.5,0,2.9,0,4.4-0.1v11.6l-4.4-0.1V238.3z"></path> <path class="st1" d="M354.9,255.5c0,1.7-1.2,3-2.6,3h-1.6c-1.4,0-2.6-1.4-2.6-3V250c0-1.7,1.2-3,2.6-3h1.6c1.4,0,2.6,1.4,2.6,3 V255.5z"></path> </g> <g> <path class="st1" d="M359.4,66h5.5c3.7,0,5.1,1.9,5.1,4.9v4.6c0,3.1-1.4,5-5.1,5h-1.8v7.5h-3.7V66z M363.1,69.1v8.7h1.4 c1.3,0,1.8-0.6,1.8-1.8v-5.1c0-1.2-0.6-1.8-1.8-1.8H363.1z"></path> <path class="st1" d="M371.9,66h8.8v3h-5.1v6.3h3.7v3h-3.7V85h5.1v3h-8.8V66z"></path> <path class="st1" d="M382.2,88.1l4.2-22h4.2l4.2,22h-3.8l-0.7-4h-3.9l-0.6,4H382.2z M386.8,81.1h3l-1.5-8.8h0L386.8,81.1z"></path> <path class="st1" d="M395.8,82.4V71.7c0-3.4,1.6-5.9,5.5-5.9c4.1,0,5.2,2.3,5.2,5.5v2.6h-3.4V71c0-1.4-0.5-2.1-1.8-2.1 c-1.3,0-1.9,0.9-1.9,2.3V83c0,1.3,0.6,2.3,1.9,2.3c1.3,0,1.8-0.8,1.8-2.1V79h3.4v3.8c0,3.2-1.3,5.5-5.2,5.5 C397.4,88.3,395.8,85.8,395.8,82.4z"></path> <path class="st1" d="M408.5,66h8.8v3h-5.1v6.3h3.7v3h-3.7V85h5.1v3h-8.8V66z"></path> <path class="st1" d="M423.1,84.8l-1.9,5h-2.1l0.5-5.3h3.5V84.8z"></path> <path class="st1" d="M438.5,66v17c0,3.2-1.4,5.3-5.1,5.3c-3.8,0-4.9-2.1-4.9-4.9V79h3.5v4.4c0,1.1,0.4,1.8,1.4,1.8 c1,0,1.4-0.7,1.4-1.8V66H438.5z"></path> <path class="st1" d="M451.3,66v16.7c0,3.4-1.5,5.6-5.2,5.6c-3.9,0-5.5-2.2-5.5-5.6V66h3.7v17c0,1.3,0.5,2.2,1.8,2.2 c1.3,0,1.8-0.9,1.8-2.2V66H451.3z"></path> <path class="st1" d="M453.2,83.3v-3h3.4v3c0,1.2,0.6,1.9,1.8,1.9c1.2,0,1.7-0.8,1.7-1.9v-0.8c0-1.3-0.5-2-1.7-3.1l-2.2-2.2 c-2.1-2.1-3.1-3.3-3.1-5.9v-0.7c0-2.7,1.6-4.8,5.2-4.8c3.7,0,5.2,1.8,5.2,5v1.8h-3.4v-1.9c0-1.3-0.6-1.9-1.8-1.9 c-1,0-1.8,0.6-1.8,1.8V71c0,1.2,0.7,1.9,1.8,3l2.4,2.3c2,2,3,3.3,3,5.7v1.1c0,3-1.6,5.2-5.4,5.2C454.7,88.3,453.2,86.2,453.2,83.3 z"></path> <path class="st1" d="M464.9,66h9.8v3h-3.1v19H468v-19h-3.1V66z"></path> <path class="st1" d="M476.5,66h3.7v22h-3.7V66z"></path> <path class="st1" d="M482.3,82.4V71.7c0-3.4,1.6-5.9,5.5-5.9c4.1,0,5.2,2.3,5.2,5.5v2.6h-3.4V71c0-1.4-0.5-2.1-1.8-2.1 c-1.3,0-1.9,0.9-1.9,2.3V83c0,1.3,0.6,2.3,1.9,2.3c1.3,0,1.8-0.8,1.8-2.1V79h3.4v3.8c0,3.2-1.3,5.5-5.2,5.5 C483.9,88.3,482.3,85.8,482.3,82.4z"></path> <path class="st1" d="M495.1,66h8.8v3h-5.1v6.3h3.7v3h-3.7V85h5.1v3h-8.8V66z"></path> <path class="st1" d="M358.8,118.9l4.2-22h4.2l4.2,22h-3.8l-0.7-4H363l-0.6,4H358.8z M363.5,111.9h3l-1.5-8.8h0L363.5,111.9z"></path> <path class="st1" d="M376.1,105.1v13.8h-3.1v-22h3.6l4,12.6V96.9h3.1v22h-3.2L376.1,105.1z"></path> <path class="st1" d="M396.8,102.8V113c0,3.4-1.4,5.9-5.4,5.9h-5.7v-22h5.7C395.4,96.9,396.8,99.4,396.8,102.8z M391,115.9 c1.5,0,2.1-0.9,2.1-2.2v-11.5c0-1.3-0.6-2.2-2.1-2.2h-1.6v16H391z"></path> <path class="st1" d="M402.2,114.2v-3h3.4v3c0,1.2,0.6,1.9,1.8,1.9c1.2,0,1.7-0.8,1.7-1.9v-0.8c0-1.3-0.5-2-1.7-3.1l-2.2-2.2 c-2.1-2.1-3.1-3.3-3.1-5.9v-0.7c0-2.7,1.6-4.8,5.2-4.8c3.7,0,5.2,1.8,5.2,5v1.8h-3.4v-1.9c0-1.3-0.6-1.9-1.8-1.9 c-1,0-1.8,0.6-1.8,1.8v0.5c0,1.2,0.7,1.9,1.8,3l2.4,2.3c2,2,3,3.3,3,5.7v1.1c0,3-1.6,5.2-5.4,5.2S402.2,117.1,402.2,114.2z"></path> <path class="st1" d="M413.8,96.9h9.8v3h-3.1v19h-3.7v-19h-3.1V96.9z"></path> <path class="st1" d="M429.1,108.8v10.1h-3.7v-22h5.4c3.7,0,5.1,1.9,5.1,4.9v2.8c0,2.4-0.8,3.8-3,4.3l3.5,10h-3.9L429.1,108.8z M429.1,99.9v6.9h1.2c1.3,0,1.8-0.7,1.8-1.8v-3.2c0-1.2-0.6-1.8-1.8-1.8H429.1z"></path> <path class="st1" d="M437.9,113.2v-10.7c0-3.4,1.7-5.9,5.6-5.9c3.9,0,5.6,2.5,5.6,5.9v10.7c0,3.4-1.7,5.9-5.6,5.9 C439.6,119.2,437.9,116.6,437.9,113.2z M445.4,113.8V102c0-1.3-0.6-2.3-1.9-2.3c-1.3,0-1.9,0.9-1.9,2.3v11.8 c0,1.3,0.6,2.3,1.9,2.3C444.8,116.1,445.4,115.1,445.4,113.8z"></path> <path class="st1" d="M454.3,105.1v13.8h-3.1v-22h3.6l4,12.6V96.9h3.1v22h-3.2L454.3,105.1z"></path> <path class="st1" d="M469.6,107.2h5.3v11.8h-2.7v-2.4c-0.5,1.7-1.5,2.7-3.5,2.7c-3.2,0-4.6-2.5-4.6-5.9v-10.7 c0-3.4,1.7-5.9,5.6-5.9c4.1,0,5.3,2.3,5.3,5.5v1.9h-3.4v-2.2c0-1.4-0.5-2.1-1.9-2.1s-1.9,0.9-1.9,2.3v11.8c0,1.3,0.6,2.3,1.8,2.3 c1.2,0,1.8-0.7,1.8-2.1v-3.9h-1.8V107.2z"></path> <path class="st1" d="M359.4,127.7h3.7v22h-3.7V127.7z"></path> <path class="st1" d="M368.4,135.9v13.8h-3.1v-22h3.6l4,12.6v-12.6h3.1v22h-3.2L368.4,135.9z"></path> <path class="st1" d="M377.9,145v-3h3.4v3c0,1.2,0.6,1.9,1.8,1.9c1.2,0,1.7-0.8,1.7-1.9v-0.8c0-1.3-0.5-2-1.7-3.1l-2.2-2.2 c-2.1-2.1-3.1-3.3-3.1-5.9v-0.7c0-2.7,1.6-4.8,5.2-4.8c3.7,0,5.2,1.8,5.2,5v1.8h-3.4v-1.9c0-1.3-0.6-1.9-1.8-1.9 c-1,0-1.8,0.6-1.8,1.8v0.5c0,1.2,0.7,1.9,1.8,3l2.4,2.3c2,2,3,3.3,3,5.7v1.1c0,3-1.6,5.2-5.4,5.2C379.4,150,377.9,147.9,377.9,145 z"></path> <path class="st1" d="M389.6,127.7h9.8v3h-3.1v19h-3.7v-19h-3.1V127.7z"></path> <path class="st1" d="M401.1,127.7h3.7v22h-3.7V127.7z"></path> <path class="st1" d="M406.5,127.7h9.8v3h-3.1v19h-3.7v-19h-3.1V127.7z"></path> <path class="st1" d="M428.9,127.7v16.7c0,3.4-1.5,5.6-5.2,5.6c-3.9,0-5.5-2.2-5.5-5.6v-16.7h3.7v17c0,1.3,0.5,2.2,1.8,2.2 c1.3,0,1.8-0.9,1.8-2.2v-17H428.9z"></path> <path class="st1" d="M430.5,127.7h9.8v3h-3.1v19h-3.7v-19h-3.1V127.7z"></path> <path class="st1" d="M442.1,127.7h3.7v22h-3.7V127.7z"></path> <path class="st1" d="M447.9,144.1v-10.7c0-3.4,1.7-5.9,5.6-5.9c3.9,0,5.6,2.5,5.6,5.9v10.7c0,3.4-1.7,5.9-5.6,5.9 C449.6,150,447.9,147.5,447.9,144.1z M455.5,144.7v-11.8c0-1.3-0.6-2.3-1.9-2.3c-1.3,0-1.9,0.9-1.9,2.3v11.8 c0,1.3,0.6,2.3,1.9,2.3C454.9,146.9,455.5,146,455.5,144.7z"></path> <path class="st1" d="M464.4,135.9v13.8h-3.1v-22h3.6l4,12.6v-12.6h3.1v22h-3.2L464.4,135.9z"></path> <path class="st1" d="M473.9,145v-3h3.4v3c0,1.2,0.6,1.9,1.8,1.9c1.2,0,1.7-0.8,1.7-1.9v-0.8c0-1.3-0.5-2-1.7-3.1l-2.2-2.2 c-2.1-2.1-3.1-3.3-3.1-5.9v-0.7c0-2.7,1.6-4.8,5.2-4.8c3.7,0,5.2,1.8,5.2,5v1.8h-3.4v-1.9c0-1.3-0.6-1.9-1.8-1.9 c-1,0-1.8,0.6-1.8,1.8v0.5c0,1.2,0.7,1.9,1.8,3l2.4,2.3c2,2,3,3.3,3,5.7v1.1c0,3-1.6,5.2-5.4,5.2S473.9,147.9,473.9,145z"></path> </g> </g> </svg> 